<?xml version="1.0" encoding="utf-8"?>
<!-- Generator: Adobe Illustrator 16.0.0, SVG Export Plug-In . SVG Version: 6.00 Build 0)  -->
<!DOCTYPE svg PUBLIC "-//W3C//DTD SVG 1.1//EN" "http://www.w3.org/Graphics/SVG/1.1/DTD/svg11.dtd">
<svg version="1.1" id="레이어_1" xmlns="http://www.w3.org/2000/svg" xmlns:xlink="http://www.w3.org/1999/xlink" x="0px"
	 y="0px" width="1000px" height="564px" viewBox="0 0 1000 564" enable-background="new 0 0 1000 564" xml:space="preserve">
<g>
	<g>
		<path fill="#221E1F" d="M134.804,302.223v-41.251h7.915v34.242h18.667v7.245C161.446,302.223,134.804,302.223,134.804,302.223z"/>
		<path fill="#221E1F" d="M168.127,302.223v-41.251h7.917v41.298C176.117,302.223,168.127,302.223,168.127,302.223z"/>
		<path fill="#221E1F" d="M193.668,268.454v9.94h16.322v7.242h-16.322v16.712h-7.978v-41.259h26.942v7.246L193.668,268.454
			L193.668,268.454z"/>
		<path fill="#221E1F" d="M234.598,302.584c-8.408,0-15.102-5.58-15.102-14.312V261.28h7.921v26.629
			c0,4.735,2.701,7.603,7.244,7.603c4.479,0,7.242-2.702,7.242-7.603v-26.631h7.922v26.94
			C249.7,297.12,242.947,302.584,234.598,302.584z"/>
		<path fill="#221E1F" d="M258.851,302.223v-41.251h7.978v34.242h18.651v7.245C285.481,302.223,258.851,302.223,258.851,302.223z"/>
		<path fill="#929496" d="M334.704,302.223v-23.939l-7.921,15.507h-5.584l-7.915-15.507v23.939h-7.915v-41.251h7.915l10.736,22.271
			l10.737-22.271h7.915v41.298C342.749,302.223,334.704,302.223,334.704,302.223z"/>
		<path fill="#929496" d="M352.685,302.223v-41.251h7.915v41.298C360.554,302.223,352.685,302.223,352.685,302.223z"/>
		<path fill="#929496" d="M394.304,302.223l-16.332-25.368v25.415h-7.913v-41.298h7.242l16.322,25.034v-25.034h7.921v41.298
			C401.362,302.223,394.304,302.223,394.304,302.223z"/>
		<path fill="#929496" d="M411.305,302.223v-41.251h7.915v41.298h-7.915V302.223z"/>
		<path fill="#929496" d="M458.316,302.223v-23.939l-7.978,15.585h-5.281l-7.915-15.539v23.939h-7.913v-41.298h7.911l10.744,22.271
			l10.737-22.271h7.923v41.298h-8.229V302.223z"/>
		<path fill="#929496" d="M499.681,302.223l-2.325-7.249h-14.673l-2.329,7.249h-8.417l15.104-41.321h6.378l15.105,41.321H499.681z
			 M489.748,273.248l-5.28,15.094h10.308L489.748,273.248z"/>
		<path fill="#929496" d="M513.12,302.223v-41.251h7.928v34.242h18.645v7.245C539.691,302.223,513.12,302.223,513.12,302.223z"/>
		<path fill="#929496" d="M585.071,297.864c-3.242,3.235-7.242,4.719-11.553,4.719c-4.283,0-7.916-1.602-11.026-4.372
			c-2.045-2.021-2.729-4.045-3.269-6.365c-0.296-2.335-0.787-5.59-0.787-10.317c0-4.365,0.297-7.919,0.787-10.317
			c0.438-2.339,1.604-4.357,3.269-6.381c3.233-3.244,6.668-4.358,11.026-4.358c9.635,0,14.308,5.954,15.521,13.076h-7.915
			c-0.798-4.042-3.543-5.954-7.606-5.954c-2.03,0-4.052,0.797-5.271,2.336c-1.603,2.021-2.035,3.547-2.035,11.535
			c0,7.918,0.306,9.639,2.035,11.534c1.219,1.594,2.708,2.026,5.271,2.026c2.329,0,4.363-0.812,5.576-2.344
			c1.232-1.214,2.03-3.254,2.03-5.572v-1.586h-7.606v-6.693h15.521v5.945C589.039,291.473,587.95,295.083,585.071,297.864z"/>
		<path fill="#929496" d="M619.622,302.223l-2.335-7.249h-14.683l-2.317,7.249h-8.417l15.095-41.321h6.396l15.101,41.321H619.622z
			 M610.229,273.248l-5.278,15.094h10.305L610.229,273.248z"/>
		<path fill="#929496" d="M655.019,302.223l-7.909-16.344h-5.95v16.344h-7.914v-41.251h16.208c8.416,0,13.585,5.581,13.585,12.64
			c0,5.945-3.566,9.622-7.627,10.737l9.097,17.921h-9.491v-0.047H655.019z M648.573,268.454h-7.606v10.737h7.606
			c3.563,0,5.956-2.337,5.956-5.582C654.593,270.478,652.275,268.454,648.573,268.454z"/>
		<path fill="#929496" d="M700.4,302.223v-23.939l-7.927,15.507h-5.598l-7.917-15.507v23.939h-7.92v-41.251h7.92l10.752,22.271
			l10.72-22.271h7.921v41.298H700.4V302.223L700.4,302.223z"/>
		<path fill="#929496" d="M718.139,302.223v-41.251h26.93v7.239h-19.027v9.641h16.318v7.238h-16.318v9.947h19.027v7.232
			L718.139,302.223L718.139,302.223z"/>
		<path fill="#929496" d="M777.415,302.223l-16.319-25.367v25.416h-7.87v-41.298h7.239l16.336,25.032v-25.032h7.917v41.298
			C784.582,302.223,777.415,302.223,777.415,302.223z"/>
		<path fill="#929496" d="M810.01,268.454v34.249h-7.988v-34.249h-10.738v-7.238h29.292v7.238H810.01z"/>
		<path fill="#929496" d="M838.606,302.584c-6.395,0-11.038-1.229-15.095-5.58l5.274-5.285c2.7,2.702,5.944,3.57,9.955,3.57
			c4.703,0,7.222-1.602,7.222-5.298c0-1.571-0.298-2.683-1.214-3.547c-0.821-0.802-1.593-1.23-3.551-1.593l-4.737-0.805
			c-3.553-0.301-5.954-1.596-7.911-3.546c-1.958-1.973-2.701-4.73-2.701-7.92c0-7.246,5.592-12.284,14.29-12.284
			c5.593,0,9.948,1.231,13.58,4.729l-5.267,5.283c-2.707-2.337-5.589-2.701-8.417-2.701c-4.35,0-6.378,2.335-6.378,5.274
			c0,1.229,0.293,2.02,1.207,2.701c0.821,0.804,2.037,1.213,4.061,1.586l4.718,0.796c3.568,0.331,5.962,1.604,7.921,3.269
			c2.335,2.019,3.259,5.283,3.259,8.716C854.191,298.214,847.45,302.584,838.606,302.584z"/>
	</g>
	<rect x="858.557" y="294.288" fill="#929496" width="7.919" height="7.918"/>
</g>
</svg>
