<?xml version="1.0" encoding="utf-8"?>
<!-- Generator: Adobe Illustrator 16.0.0, SVG Export Plug-In . SVG Version: 6.00 Build 0)  -->
<!DOCTYPE svg PUBLIC "-//W3C//DTD SVG 1.1//EN" "http://www.w3.org/Graphics/SVG/1.1/DTD/svg11.dtd">
<svg version="1.1" id="레이어_1" xmlns="http://www.w3.org/2000/svg" xmlns:xlink="http://www.w3.org/1999/xlink" x="0px"
	 y="0px" width="1000.846px" height="564px" viewBox="0 0 1000.846 564" enable-background="new 0 0 1000.846 564"
	 xml:space="preserve">
<rect x="0" fill="#FFFFFF" width="1000.846" height="564"/>
<g>
	<g>
		<path fill="#211D1E" d="M674.568,321.516c-0.113-0.113-0.166-0.219-0.278-0.332c-0.22-0.219-0.438-0.438-0.596-0.656
			c-0.062-0.053-0.062-0.053-0.113-0.105c-0.165-0.166-0.325-0.332-0.49-0.437c-0.111-0.113-0.227-0.166-0.332-0.279
			c0,0,0,0-0.052,0c-0.054-0.052-0.113-0.052-0.113-0.104c-1.041-0.822-2.238-1.479-3.56-1.862
			c-0.211-0.054-0.438-0.113-0.647-0.166h-0.061c-0.052,0-0.052,0-0.104,0c-0.114-0.054-0.271-0.054-0.386-0.054
			c-0.053,0-0.053,0-0.053,0c-0.061,0-0.166-0.053-0.226-0.053c0,0,0,0-0.047,0c-0.227-0.06-0.392-0.06-0.604-0.06
			c-0.061,0-0.166,0-0.227,0c-0.271,0-0.541-0.053-0.813-0.053c-0.271,0-0.55,0-0.822,0.053c-0.052,0-0.165,0-0.219,0
			c-0.165,0-0.383,0.06-0.542,0.06c-0.061,0-0.061,0-0.113,0c-0.052,0-0.111,0-0.165,0.053c-0.054,0-0.114,0-0.22,0.054
			c-0.053,0-0.053,0-0.104,0.053c-0.112,0-0.227,0.06-0.279,0.06h-0.052c-0.22,0.054-0.438,0.105-0.656,0.166
			c-1.365,0.377-2.571,1.094-3.672,1.908c-0.104,0.113-0.211,0.166-0.324,0.278c-0.218,0.166-0.385,0.324-0.551,0.49
			c-0.211,0.219-0.438,0.438-0.647,0.709c-0.113,0.112-0.166,0.218-0.278,0.332c-1.472,1.915-2.239,4.214-2.239,6.672
			c0,2.465,0.769,4.765,2.239,6.672c0.112,0.114,0.165,0.228,0.278,0.333c0.271,0.271,0.438,0.551,0.709,0.77
			c0.165,0.158,0.331,0.271,0.489,0.438c0.052,0.053,0.052,0.053,0.113,0.053c0.105,0.105,0.211,0.219,0.324,0.271
			c1.094,0.875,2.354,1.531,3.672,1.968c0.045,0,0.104,0.062,0.104,0.062c0.656,0.158,1.312,0.324,1.968,0.375l0,0l0,0
			c0.324,0.061,0.717,0.061,1.04,0.061c0.324,0,0.716,0,1.04-0.061c0,0,0,0,0.055,0l0,0c0.708-0.053,1.371-0.217,2.02-0.438
			c0.061,0,0.061,0,0.061,0l0,0c0.055,0,0.106-0.052,0.166-0.052h0.054c0.053,0,0.157-0.054,0.219-0.054l0,0
			c0.054-0.053,0.167-0.053,0.218-0.112l0,0c0.055-0.054,0.16-0.054,0.219-0.106c0,0,0,0,0.055,0
			c0.053-0.052,0.113-0.052,0.218-0.052h0.062c0.054-0.06,0.105-0.06,0.164-0.06c0.048,0,0.048,0,0.048,0
			c0.06,0,0.112-0.053,0.165-0.053c0.061,0,0.061-0.054,0.112-0.054c0.056,0,0.114-0.053,0.114-0.053c0.046,0,0.046-0.06,0.104-0.06
			c0.053,0,0.053-0.054,0.104-0.054c0.061,0,0.061-0.053,0.112-0.053c0.055,0,0.055-0.052,0.113-0.052
			c0.045,0,0.045-0.062,0.105-0.062c0.053-0.053,0.104-0.053,0.104-0.106c0.061,0,0.061-0.051,0.113-0.051
			c0.053-0.062,0.113-0.062,0.157-0.113c0,0,0.061,0,0.061-0.053c0.333-0.22,0.604-0.438,0.875-0.656
			c0.062-0.062,0.105-0.113,0.166-0.166c0.105-0.053,0.166-0.166,0.271-0.219c0.105-0.113,0.271-0.219,0.385-0.332
			c0.219-0.218,0.489-0.488,0.709-0.761l0,0c0.112-0.112,0.165-0.219,0.278-0.332c1.479-1.915,2.239-4.207,2.239-6.672
			C676.809,325.723,676.046,323.43,674.568,321.516z M673.415,334.754L673.415,334.754c-0.113,0.105-0.16,0.219-0.22,0.271
			l-0.166-0.114l-0.166-0.104c-0.438-0.219-1.252-0.656-1.688-0.822c-0.112,0.271-0.271,0.551-0.385,0.822
			c0.271,0.104,0.875,0.438,1.146,0.551l0.551,0.324c-0.876,0.769-1.862,1.363-2.902,1.809c-0.054,0-0.115,0.053-0.115,0.053l0,0
			c-0.646,0.271-1.416,0.438-2.124,0.543l0.874-0.979c0.378-0.438,0.98-1.312,1.312-1.81c-0.331-0.106-0.604-0.158-0.935-0.22
			c-0.378,0.55-1.087,1.478-1.584,1.968l-0.77,0.77v-3.122c-0.104,0-0.271,0-0.438,0s-0.323,0-0.489,0v3.122l-0.763-0.77
			c-0.496-0.49-1.153-1.363-1.539-1.906c-0.322,0.052-0.602,0.158-0.927,0.219c0.325,0.488,0.987,1.311,1.365,1.749l0.873,0.979
			c-1.959-0.271-3.769-1.146-5.193-2.404l0.55-0.324c0.271-0.113,0.875-0.446,1.146-0.551c-0.166-0.271-0.271-0.551-0.377-0.822
			c-0.438,0.218-1.268,0.604-1.705,0.822l-0.27,0.166c-1.586-1.696-2.571-3.943-2.686-6.4h3.506c0-0.166,0-0.279,0-0.438
			c0-0.166,0-0.332,0-0.438h-3.506c0.113-2.465,1.1-4.705,2.686-6.4l0.104,0.053l0.164,0.104c0.438,0.22,1.427,0.664,1.811,0.822
			c0.105-0.271,0.271-0.543,0.378-0.822c-0.271-0.104-1.033-0.437-1.312-0.543l-0.543-0.271c0.935-0.822,2.021-1.479,3.173-1.916
			c0.16-0.062,0.325-0.113,0.438-0.168c0.489-0.164,1.04-0.271,1.592-0.383l-0.883,0.987c-0.386,0.438-1.093,1.312-1.425,1.802
			c0.277,0.053,0.604,0.166,0.936,0.219c0.377-0.543,1.146-1.479,1.583-1.967l0.769-0.77v3.943l-0.219-0.053h-0.219
			c-0.331,0-1.146-0.166-1.425-0.166c-0.158,0.271-0.324,0.543-0.438,0.875c0.491,0.053,1.479,0.219,1.969,0.271l0.438,0.053v4.38
			h-3.499c0,0.166,0,0.324,0,0.438c0,0.166,0,0.271,0,0.437h3.499v3.445c0.164,0,0.77,0,0.874,0v-3.445h4.381v0.218v0.219
			c-0.054,1.095-0.386,2.466-0.716,3.5c0.277,0.113,0.603,0.166,0.881,0.279c0.385-1.094,0.709-2.632,0.762-3.83l0.061-0.438h4.319
			C675.768,330.924,674.891,333.057,673.415,334.754C673.467,334.693,673.467,334.693,673.415,334.754z M675.88,327.697h-4.328
			v-0.219v-0.219c-0.104-1.319-0.325-2.631-0.813-3.83c-0.062-0.113-0.112-0.279-0.166-0.385l-0.165-0.385l0.219-0.105l0.22-0.112
			l0,0c0.165-0.054,0.271-0.106,0.383-0.167c0.552-0.219,1.146-0.49,1.696-0.822l0.331-0.158
			C674.734,323.045,675.768,325.232,675.88,327.697z M666.47,323.37l0.211-0.053c0.718-0.054,1.373-0.104,2.029-0.272
			c0.166-0.053,0.279-0.053,0.438-0.113l0.384-0.053l0.054,0.166l0.053,0.168c0.062,0.157,0.111,0.271,0.165,0.437
			c0.438,1.146,0.709,2.353,0.77,3.61l0.054,0.438h-4.381v-4.108v-0.219L666.47,323.37L666.47,323.37z M666.244,322.442v-3.394
			v-0.543l0.77,0.762c0.543,0.551,1.04,1.207,1.479,1.81c0.104,0.104,0.165,0.272,0.271,0.438l0.331,0.543l-0.271,0.06l-0.331,0.054
			c-0.166,0-0.332,0.053-0.49,0.104c-0.385,0.062-0.822,0.112-1.26,0.167L666.244,322.442L666.244,322.442z M672.539,320.693
			l-0.55,0.271c-0.378,0.217-0.763,0.385-1.199,0.549c-0.165,0.054-0.278,0.106-0.437,0.158l-0.332,0.113l-0.055-0.166l-0.104-0.167
			c-0.061-0.157-0.164-0.271-0.226-0.377c-0.378-0.655-0.875-1.319-1.418-1.915l-0.874-0.986
			C669.313,318.506,671.062,319.381,672.539,320.693z"/>
		<path fill="#211D1E" d="M668.71,333.276c-0.656-0.113-1.312-0.22-2.029-0.271c-0.271,0-0.541-0.062-0.812-0.062
			c-0.333,0-0.604,0-0.874,0.062c-0.709,0.051-1.372,0.104-2.029,0.271c-0.156,0.053-0.271,0.053-0.438,0.104l-0.384,0.062
			l-0.054-0.166l-0.053-0.166c-0.06-0.166-0.105-0.332-0.166-0.437c-0.438-1.146-0.708-2.354-0.769-3.613
			c0-0.323-0.054-0.603-0.054-0.926c0-0.279,0-0.551,0.054-0.936c0.111-1.259,0.386-2.458,0.769-3.611
			c0.061-0.158,0.106-0.271,0.166-0.437c0.167-0.377,0.378-0.813,0.604-1.199c-0.271-0.06-0.604-0.166-0.875-0.278
			c-0.228,0.444-0.438,0.821-0.604,1.258c-0.061,0.113-0.113,0.281-0.166,0.386c-0.438,1.206-0.709,2.518-0.821,3.882
			c0,0.279,0,0.604,0,0.874c0,0.28,0,0.604,0,0.883c0.112,1.312,0.385,2.624,0.821,3.884c0.053,0.104,0.105,0.271,0.166,0.385
			c0.165,0.437,0.376,0.812,0.604,1.25c0.488-0.158,0.979-0.271,1.478-0.377c0.158-0.061,0.325-0.061,0.49-0.112
			c0.385-0.054,0.822-0.104,1.26-0.166c0.377-0.054,0.655-0.054,0.927-0.054c0.324,0,0.604,0,0.928,0.054
			c0.438,0.062,0.821,0.062,1.267,0.166c0.16,0.052,0.325,0.052,0.483,0.112c0.497,0.105,0.987,0.22,1.478,0.377
			c0.113-0.271,0.279-0.543,0.391-0.813c-0.391-0.112-0.826-0.278-1.205-0.332C668.99,333.329,668.876,333.276,668.71,333.276z"/>
	</g>
	<path fill="#211D1E" d="M325.037,225.72h28.996v87.969h49.616v25.438h-78.612V225.72L325.037,225.72z"/>
	<path fill="#211D1E" d="M413.496,339.126V225.719h38.79l21.283,73.085l20.674-73.085h38.955v113.407h-26.637v-84.907
		l-23.582,84.907h-19.151l-23.582-84.907v84.907H413.496L413.496,339.126z"/>
	<path fill="#211D1E" d="M602.952,316.969c-18.767,0-33.973-15.207-33.973-33.972c0-18.766,15.206-33.973,33.973-33.973
		c13.677,0,25.437,8.098,30.797,19.753h27.248c-6.401-26.206-29.925-45.628-58.045-45.628c-33.046,0-59.854,26.803-59.854,59.848
		c0,33.044,26.81,59.854,59.854,59.854c28.34,0,52.028-19.754,58.211-46.231h-27.142C628.775,308.6,616.847,316.969,602.952,316.969
		z"/>
</g>
</svg>
